<mxfile host="Electron" agent="Mozilla/5.0 (Windows NT 10.0; Win64; x64) AppleWebKit/537.36 (KHTML, like Gecko) draw.io/24.7.17 Chrome/128.0.6613.36 Electron/32.0.1 Safari/537.36" version="24.7.17">
  <diagram name="Página-1" id="7zRciVBeSr0iCR4m4c-i">
    <mxGraphModel dx="1194" dy="657" grid="1" gridSize="10" guides="1" tooltips="1" connect="1" arrows="1" fold="1" page="1" pageScale="1" pageWidth="827" pageHeight="1169" math="0" shadow="0">
      <root>
        <mxCell id="0" />
        <mxCell id="1" parent="0" />
        <mxCell id="3xQV-H71B-Q1isJT_iXs-1" value="&lt;b&gt;&lt;font style=&quot;font-size: 16px;&quot;&gt;Server 1&lt;/font&gt;&lt;/b&gt;&lt;div&gt;&lt;b&gt;&lt;br&gt;&lt;/b&gt;&lt;/div&gt;&lt;div&gt;&lt;b&gt;&lt;br&gt;&lt;/b&gt;&lt;/div&gt;&lt;div&gt;&lt;b&gt;&lt;br&gt;&lt;/b&gt;&lt;/div&gt;&lt;div&gt;&lt;b&gt;&lt;br&gt;&lt;/b&gt;&lt;/div&gt;&lt;div&gt;&lt;b&gt;&lt;br&gt;&lt;/b&gt;&lt;/div&gt;&lt;div&gt;&lt;b&gt;&lt;br&gt;&lt;/b&gt;&lt;/div&gt;&lt;div&gt;&lt;b&gt;&lt;br&gt;&lt;/b&gt;&lt;/div&gt;&lt;div&gt;&lt;b&gt;&lt;br&gt;&lt;/b&gt;&lt;/div&gt;&lt;div style=&quot;&quot;&gt;&lt;b&gt;&lt;br&gt;&lt;/b&gt;&lt;/div&gt;&lt;div style=&quot;&quot;&gt;&lt;b&gt;&lt;br&gt;&lt;/b&gt;&lt;/div&gt;&lt;div style=&quot;&quot;&gt;&lt;b&gt;&lt;br&gt;&lt;/b&gt;&lt;/div&gt;&lt;div style=&quot;&quot;&gt;&lt;b&gt;&lt;br&gt;&lt;/b&gt;&lt;/div&gt;&lt;div style=&quot;&quot;&gt;&lt;b&gt;&lt;br&gt;&lt;/b&gt;&lt;/div&gt;&lt;div style=&quot;&quot;&gt;&lt;b&gt;&lt;br&gt;&lt;/b&gt;&lt;/div&gt;&lt;div style=&quot;&quot;&gt;&lt;b&gt;&lt;br&gt;&lt;/b&gt;&lt;/div&gt;" style="shape=cube;whiteSpace=wrap;html=1;boundedLbl=1;backgroundOutline=1;darkOpacity=0.05;darkOpacity2=0.1;size=10;rotation=0;shadow=0;flipV=0;flipH=1;fillColor=#1ba1e2;fontColor=#ffffff;strokeColor=#000000;" parent="1" vertex="1">
          <mxGeometry x="239" y="450" width="350" height="270" as="geometry" />
        </mxCell>
        <mxCell id="3xQV-H71B-Q1isJT_iXs-4" value="«component»&lt;br&gt;&lt;b&gt;MDBackoffice&lt;/b&gt;" style="html=1;dropTarget=0;whiteSpace=wrap;fillColor=#1ba1e2;fontColor=#ffffff;strokeColor=#000000;" parent="1" vertex="1">
          <mxGeometry x="249" y="520" width="150" height="60" as="geometry" />
        </mxCell>
        <mxCell id="3xQV-H71B-Q1isJT_iXs-5" value="" style="shape=module;jettyWidth=8;jettyHeight=4;fillColor=#1ba1e2;fontColor=#ffffff;strokeColor=#000000;" parent="3xQV-H71B-Q1isJT_iXs-4" vertex="1">
          <mxGeometry x="1" width="20" height="20" relative="1" as="geometry">
            <mxPoint x="-27" y="7" as="offset" />
          </mxGeometry>
        </mxCell>
        <mxCell id="3xQV-H71B-Q1isJT_iXs-6" value="«component»&lt;br&gt;&lt;b&gt;Visualization(UI)&lt;/b&gt;" style="html=1;dropTarget=0;whiteSpace=wrap;fillColor=#1ba1e2;fontColor=#ffffff;strokeColor=#000000;" parent="1" vertex="1">
          <mxGeometry x="329" y="600" width="150" height="60" as="geometry" />
        </mxCell>
        <mxCell id="3xQV-H71B-Q1isJT_iXs-7" value="" style="shape=module;jettyWidth=8;jettyHeight=4;fillColor=#1ba1e2;fontColor=#ffffff;strokeColor=#000000;" parent="3xQV-H71B-Q1isJT_iXs-6" vertex="1">
          <mxGeometry x="1" width="20" height="20" relative="1" as="geometry">
            <mxPoint x="-27" y="7" as="offset" />
          </mxGeometry>
        </mxCell>
        <mxCell id="3xQV-H71B-Q1isJT_iXs-10" value="«component»&lt;br&gt;&lt;b&gt;Planning&lt;/b&gt;" style="html=1;dropTarget=0;whiteSpace=wrap;fillColor=#1ba1e2;fontColor=#ffffff;strokeColor=#000000;" parent="1" vertex="1">
          <mxGeometry x="419" y="520" width="150" height="60" as="geometry" />
        </mxCell>
        <mxCell id="3xQV-H71B-Q1isJT_iXs-11" value="" style="shape=module;jettyWidth=8;jettyHeight=4;fillColor=#1ba1e2;fontColor=#ffffff;strokeColor=#000000;" parent="3xQV-H71B-Q1isJT_iXs-10" vertex="1">
          <mxGeometry x="1" width="20" height="20" relative="1" as="geometry">
            <mxPoint x="-27" y="7" as="offset" />
          </mxGeometry>
        </mxCell>
      </root>
    </mxGraphModel>
  </diagram>
</mxfile>
